<svg width="22" height="22" viewBox="0 0 22 22" fill="none" xmlns="http://www.w3.org/2000/svg">
<path d="M10.25 0.999999C10.25 0.585786 10.5858 0.25 11 0.25C16.9371 0.25 21.75 5.06294 21.75 11C21.75 16.9371 16.9371 21.75 11 21.75C5.06294 21.75 0.25 16.9371 0.25 11C0.25 10.5858 0.585787 10.25 1 10.25C1.41421 10.25 1.75 10.5858 1.75 11C1.75 16.1086 5.89137 20.25 11 20.25C16.1086 20.25 20.25 16.1086 20.25 11C20.25 5.89136 16.1086 1.75 11 1.75C10.5858 1.75 10.25 1.41421 10.25 0.999999Z" fill="#D9504D"/>
<path d="M7.46967 7.46967C7.76256 7.17678 8.23744 7.17678 8.53033 7.46967L11 9.93934L13.4697 7.46967C13.7626 7.17678 14.2374 7.17678 14.5303 7.46967C14.8232 7.76256 14.8232 8.23744 14.5303 8.53033L12.0607 11L14.5303 13.4697C14.8232 13.7626 14.8232 14.2374 14.5303 14.5303C14.2374 14.8232 13.7626 14.8232 13.4697 14.5303L11 12.0607L8.53033 14.5303C8.23744 14.8232 7.76256 14.8232 7.46967 14.5303C7.17678 14.2374 7.17678 13.7626 7.46967 13.4697L9.93934 11L7.46967 8.53033C7.17678 8.23744 7.17678 7.76256 7.46967 7.46967Z" fill="#D9504D"/>
<path d="M7.80047 2.18746C8.18003 2.02162 8.35329 1.57948 8.18746 1.19991C8.02162 0.820347 7.57948 0.647086 7.19991 0.812924C6.31659 1.19886 5.48735 1.6849 4.72649 2.25655C4.39533 2.50536 4.32857 2.97552 4.57738 3.30668C4.82619 3.63784 5.29634 3.7046 5.62751 3.45579C6.29639 2.95324 7.02494 2.52629 7.80047 2.18746Z" fill="#D9504D"/>
<path d="M3.45582 5.62747C3.70463 5.29631 3.63787 4.82615 3.30671 4.57734C2.97555 4.32853 2.50539 4.39529 2.25658 4.72645C1.68491 5.48733 1.19887 6.31658 0.812924 7.19991C0.647086 7.57948 0.820346 8.02162 1.19991 8.18746C1.57948 8.35329 2.02162 8.18003 2.18746 7.80047C2.5263 7.02493 2.95326 6.29637 3.45582 5.62747Z" fill="#D9504D"/>
</svg>
