<svg width="22" height="19" viewBox="0 0 22 19" fill="none" xmlns="http://www.w3.org/2000/svg">
<path d="M16.0001 1.75C14.1745 1.75 12.5354 2.11073 11.3175 2.67954C9.8703 3.35546 8.00863 3.75 6.00013 3.75C4.88029 3.75 3.80962 3.62743 2.83269 3.40367C2.23919 3.26774 1.75013 3.7115 1.75013 4.11397V14.886C1.75013 15.7285 1.76495 15.9342 1.87146 16.158C1.93284 16.287 2.1125 16.5124 2.2245 16.6011C2.42749 16.7617 2.55899 16.8021 3.16758 16.9415C4.03002 17.1391 4.98813 17.25 6.00013 17.25C7.82578 17.25 9.46489 16.8893 10.6828 16.3205C11.0581 16.1452 11.5044 16.3073 11.6797 16.6826C11.855 17.0579 11.6928 17.5043 11.3175 17.6795C9.8703 18.3555 8.00863 18.75 6.00013 18.75C4.88029 18.75 3.80962 18.6274 2.83269 18.4037L2.77432 18.3903C2.22743 18.2654 1.78191 18.1636 1.29374 17.7774C1.0017 17.5463 0.67709 17.1389 0.517044 16.8027C0.248853 16.2392 0.249395 15.6817 0.250066 14.9915L0.250134 4.11397C0.250134 2.54678 1.84114 1.63772 3.16758 1.94153C4.03002 2.13907 4.98813 2.25 6.00013 2.25C7.82578 2.25 9.46489 1.88927 10.6828 1.32046C12.13 0.644541 13.9916 0.25 16.0001 0.25C17.12 0.25 18.1906 0.372567 19.1676 0.596328L19.2259 0.60967C19.7728 0.734595 20.2184 0.836365 20.7065 1.22264C20.9986 1.45372 21.3232 1.86108 21.4832 2.19734C21.7514 2.76081 21.7509 3.31824 21.7502 4.00843L21.7501 10C21.7501 10.4142 21.4143 10.75 21.0001 10.75C20.5859 10.75 20.2501 10.4142 20.2501 10V4.11397C20.2501 3.27149 20.2353 3.06576 20.1288 2.84199C20.0674 2.71303 19.8878 2.48756 19.7758 2.39894C19.5728 2.23831 19.4413 2.19786 18.8327 2.05847C17.9702 1.86093 17.0121 1.75 16.0001 1.75Z" fill="#666666"/>
<path d="M13.2501 16C13.2501 15.5858 13.5859 15.25 14.0001 15.25H21.0001C21.4143 15.25 21.7501 15.5858 21.7501 16C21.7501 16.4142 21.4143 16.75 21.0001 16.75H14.0001C13.5859 16.75 13.2501 16.4142 13.2501 16Z" fill="#666666"/>
<path fill-rule="evenodd" clip-rule="evenodd" d="M11.0001 6.75C9.20521 6.75 7.75013 8.20507 7.75013 10C7.75013 11.7949 9.20521 13.25 11.0001 13.25C12.7951 13.25 14.2501 11.7949 14.2501 10C14.2501 8.20507 12.7951 6.75 11.0001 6.75ZM9.25013 10C9.25013 9.0335 10.0336 8.25 11.0001 8.25C11.9666 8.25 12.7501 9.0335 12.7501 10C12.7501 10.9665 11.9666 11.75 11.0001 11.75C10.0336 11.75 9.25013 10.9665 9.25013 10Z" fill="#666666"/>
<path d="M4.50013 10C5.05242 10 5.50013 10.4477 5.50013 11V11.009C5.50013 11.5613 5.05242 12.009 4.50013 12.009C3.94785 12.009 3.50013 11.5613 3.50013 11.009V11C3.50013 10.4477 3.94785 10 4.50013 10Z" fill="#666666"/>
<path d="M18.5001 8.99219C18.5001 8.4399 18.0524 7.99219 17.5001 7.99219C16.9478 7.99219 16.5001 8.4399 16.5001 8.99219V9.00117C16.5001 9.55345 16.9478 10.0012 17.5001 10.0012C18.0524 10.0012 18.5001 9.55345 18.5001 9.00117V8.99219Z" fill="#666666"/>
</svg>
