<svg width="22" height="22" viewBox="0 0 22 22" fill="none" xmlns="http://www.w3.org/2000/svg">
<path d="M9.99996 18C9.99996 17.4477 10.4477 17 11 17H11.0089C11.5612 17 12.0089 17.4477 12.0089 18C12.0089 18.5523 11.5612 19 11.0089 19H11C10.4477 19 9.99996 18.5523 9.99996 18Z" fill="#666666"/>
<path d="M9.99996 3.25C9.58575 3.25 9.24996 3.58579 9.24996 4C9.24996 4.41421 9.58575 4.75 9.99996 4.75H12C12.4142 4.75 12.75 4.41421 12.75 4C12.75 3.58579 12.4142 3.25 12 3.25H9.99996Z" fill="#666666"/>
<path fill-rule="evenodd" clip-rule="evenodd" d="M10.941 0.250001H11.0589C12.5409 0.249978 13.7348 0.249959 14.6736 0.385883C15.6524 0.527604 16.462 0.830216 17.0977 1.51479C17.726 2.19147 17.997 3.04001 18.1252 4.06664C18.25 5.06622 18.25 6.34216 18.25 7.94775V14.0523C18.25 15.6578 18.25 16.9338 18.1252 17.9334C17.997 18.96 17.726 19.8085 17.0977 20.4852C16.462 21.1698 15.6524 21.4724 14.6736 21.6141C13.7348 21.75 12.5409 21.75 11.059 21.75H10.941C9.45903 21.75 8.26513 21.75 7.32636 21.6141C6.34754 21.4724 5.53794 21.1698 4.90227 20.4852C4.27392 19.8085 4.00289 18.96 3.87473 17.9334C3.74993 16.9338 3.74995 15.6578 3.74996 14.0523V7.94776C3.74995 6.34217 3.74993 5.06622 3.87473 4.06664C4.00289 3.04001 4.27392 2.19147 4.90227 1.51479C5.53794 0.830216 6.34754 0.527604 7.32636 0.385883C8.26513 0.249959 9.45905 0.249978 10.941 0.250001ZM7.5413 1.8704C6.75008 1.98496 6.31769 2.19491 6.00146 2.53547C5.6779 2.88391 5.47298 3.37289 5.36317 4.25246C5.25134 5.14826 5.24996 6.33036 5.24996 8V14C5.24996 15.6696 5.25134 16.8517 5.36317 17.7475C5.47298 18.6271 5.6779 19.1161 6.00146 19.4645C6.31769 19.8051 6.75008 20.015 7.5413 20.1296C8.36014 20.2482 9.44511 20.25 11 20.25C12.5548 20.25 13.6398 20.2482 14.4586 20.1296C15.2498 20.015 15.6822 19.8051 15.9985 19.4645C16.322 19.1161 16.5269 18.6271 16.6368 17.7475C16.7486 16.8517 16.75 15.6696 16.75 14V8C16.75 6.33036 16.7486 5.14825 16.6368 4.25246C16.5269 3.37289 16.322 2.88391 15.9985 2.53547C15.6822 2.19491 15.2498 1.98496 14.4586 1.8704C13.6398 1.75184 12.5548 1.75 11 1.75C9.44511 1.75 8.36014 1.75184 7.5413 1.8704Z" fill="#666666"/>
<path d="M21.7087 7.25472C21.8432 7.6434 21.6396 8.06726 21.2535 8.20582L21.2445 8.20942C21.2325 8.21439 21.2109 8.22384 21.1829 8.23804C21.1252 8.2673 21.0503 8.31171 20.9787 8.3711C20.8377 8.48801 20.75 8.62289 20.75 8.81246C20.75 8.99775 20.8192 9.11236 21.0802 9.431L21.1058 9.46224C21.3487 9.75775 21.75 10.246 21.75 11C21.75 11.754 21.3487 12.2422 21.1058 12.5377L21.0802 12.5689C20.8192 12.8876 20.75 13.0022 20.75 13.1875C20.75 13.377 20.8377 13.5119 20.9787 13.6288C21.0503 13.6882 21.1252 13.7326 21.1829 13.7619C21.2109 13.7761 21.2325 13.7855 21.2445 13.7905L21.2535 13.7941C21.6396 13.9327 21.8432 14.3565 21.7087 14.7452C21.5733 15.1366 21.1462 15.3442 20.7547 15.2087L21 14.5C20.7547 15.2087 20.7535 15.2083 20.7535 15.2083L20.7521 15.2078L20.7492 15.2068L20.7421 15.2042L20.7234 15.1973C20.7091 15.1919 20.6909 15.1848 20.6695 15.1759C20.6268 15.1582 20.5703 15.1331 20.5045 15.0997C20.3747 15.0339 20.1996 14.9314 20.0212 14.7835C19.6622 14.4858 19.25 13.9644 19.25 13.1875C19.25 12.4335 19.6512 11.9453 19.8941 11.6497L19.9197 11.6185C20.1807 11.2999 20.25 11.1853 20.25 11C20.25 10.8147 20.1807 10.7001 19.9197 10.3814L19.8941 10.3502C19.6512 10.0547 19.25 9.56646 19.25 8.81246C19.25 8.03554 19.6622 7.51416 20.0212 7.21645C20.1996 7.06853 20.3747 6.96603 20.5045 6.90021C20.5703 6.86687 20.6268 6.84174 20.6695 6.82401C20.6909 6.81512 20.7091 6.808 20.7234 6.80258L20.7421 6.79568L20.7492 6.79313L20.7521 6.79209L20.7535 6.79162L20.7547 6.79119C21.1462 6.65575 21.5733 6.86328 21.7087 7.25472Z" fill="#666666"/>
<path d="M0.746461 8.20582C0.360366 8.06726 0.156703 7.6434 0.291187 7.25472C0.426628 6.86328 0.853752 6.65575 1.2452 6.79119L1.24644 6.79162L1.24778 6.79209L1.25076 6.79313L1.25786 6.79568L1.27651 6.80258C1.29085 6.808 1.309 6.81512 1.33043 6.82401C1.37315 6.84174 1.42965 6.86687 1.49541 6.90021C1.62521 6.96603 1.80032 7.06853 1.97871 7.21645C2.33772 7.51416 2.74996 8.03554 2.74996 8.81246C2.74996 9.56646 2.34871 10.0547 2.10585 10.3502L2.0802 10.3814C1.81923 10.7001 1.74996 10.8147 1.74996 11C1.74996 11.1853 1.81923 11.2999 2.0802 11.6185L2.10585 11.6497C2.34871 11.9453 2.74996 12.4335 2.74996 13.1875C2.74996 13.9644 2.33772 14.4858 1.97871 14.7835C1.80032 14.9314 1.62521 15.0339 1.49541 15.0997C1.42965 15.1331 1.37315 15.1582 1.33043 15.1759C1.309 15.1848 1.29085 15.1919 1.27651 15.1973L1.25786 15.2042L1.25076 15.2068L1.24778 15.2078L1.24644 15.2083C1.24644 15.2083 1.2452 15.2087 0.99996 14.5L1.2452 15.2087C0.853752 15.3442 0.426628 15.1366 0.291187 14.7452C0.156702 14.3565 0.360368 13.9327 0.746466 13.7941L0.755429 13.7905C0.767397 13.7855 0.789021 13.7761 0.817014 13.7619C0.874714 13.7326 0.949598 13.6882 1.02121 13.6288C1.1622 13.5119 1.24996 13.377 1.24996 13.1875C1.24996 13.0022 1.18069 12.8876 0.919725 12.5689L0.894074 12.5377C0.651208 12.2422 0.24996 11.754 0.24996 11C0.24996 10.246 0.651207 9.75775 0.894074 9.46224L0.919725 9.431C1.18069 9.11236 1.24996 8.99775 1.24996 8.81246C1.24996 8.62289 1.1622 8.48801 1.02121 8.3711C0.949598 8.31171 0.874714 8.2673 0.817014 8.23804C0.789021 8.22384 0.767397 8.21439 0.755429 8.20942L0.746461 8.20582Z" fill="#666666"/>
</svg>
