<svg width="22" height="22" viewBox="0 0 22 22" fill="none" xmlns="http://www.w3.org/2000/svg">
<path d="M1.75 10.9646C1.75 5.87801 5.88885 1.75 11 1.75C16.1111 1.75 20.25 5.87801 20.25 10.9646C20.25 12.2938 19.9679 13.5555 19.4608 14.6951C19.2924 15.0735 19.4626 15.5168 19.8411 15.6852C20.2195 15.8536 20.6628 15.6834 20.8312 15.3049C21.4221 13.9772 21.75 12.5081 21.75 10.9646C21.75 5.04456 16.9345 0.25 11 0.25C5.06545 0.25 0.25 5.04456 0.25 10.9646C0.25 12.5081 0.57793 13.9772 1.16879 15.3049C1.33721 15.6834 1.78051 15.8536 2.15894 15.6852C2.53737 15.5168 2.70763 15.0735 2.53921 14.6951C2.03208 13.5555 1.75 12.2938 1.75 10.9646Z" fill="#666666"/>
<path fill-rule="evenodd" clip-rule="evenodd" d="M6.75 9C6.75 6.65279 8.65279 4.75 11 4.75C13.3472 4.75 15.25 6.65279 15.25 9C15.25 11.3472 13.3472 13.25 11 13.25C8.65279 13.25 6.75 11.3472 6.75 9ZM11 6.25C9.48122 6.25 8.25 7.48122 8.25 9C8.25 10.5188 9.48122 11.75 11 11.75C12.5188 11.75 13.75 10.5188 13.75 9C13.75 7.48122 12.5188 6.25 11 6.25Z" fill="#666666"/>
<path fill-rule="evenodd" clip-rule="evenodd" d="M15.5911 15.4608C15.6765 15.5098 15.7839 15.5682 15.9068 15.635C16.4592 15.9352 17.3255 16.406 17.9182 16.9654C18.2872 17.3138 18.669 17.7999 18.7391 18.4182C18.8149 19.0872 18.5068 19.6913 17.9533 20.1997C17.0243 21.0532 15.8947 21.75 14.4295 21.75H7.57089C6.10575 21.75 4.97614 21.0532 4.04711 20.1997C3.49363 19.6913 3.18554 19.0872 3.26137 18.4182C3.33146 17.7999 3.7132 17.3138 4.08224 16.9654C4.67492 16.406 5.54125 15.9352 6.09358 15.635C6.21655 15.5682 6.32397 15.5098 6.40932 15.4608C9.22095 13.8464 12.7795 13.8464 15.5911 15.4608ZM14.8442 16.7616C12.4951 15.4128 9.50532 15.4128 7.15622 16.7616C7.01905 16.8404 6.87117 16.9213 6.71801 17.0052C6.16588 17.3074 5.5453 17.6472 5.11183 18.0563C4.84169 18.3113 4.76287 18.4898 4.75183 18.5872C4.74654 18.6338 4.73677 18.7964 5.0619 19.0951C5.84966 19.8188 6.63211 20.25 7.57089 20.25H14.4295C15.3683 20.25 16.1508 19.8188 16.9385 19.0951C17.2637 18.7964 17.2539 18.6338 17.2486 18.5872C17.2376 18.4898 17.1587 18.3113 16.8886 18.0563C16.4551 17.6472 15.8346 17.3074 15.2824 17.0052C15.1293 16.9213 14.9814 16.8403 14.8442 16.7616Z" fill="#666666"/>
</svg>
